<svg xmlns="http://www.w3.org/2000/svg" viewBox="0 0 512 512">
  <rect width="512" height="512" rx="80" fill="#1A237E"/>
  <rect x="120" y="100" width="272" height="312" rx="16" fill="white"/>
  <rect x="152" y="148" width="100" height="16" rx="6" fill="#1A237E"/>
  <rect x="152" y="148" width="208" height="12" rx="4" fill="#E8EAF6"/>
  <rect x="152" y="172" width="160" height="8" rx="4" fill="#C5CAE9"/>
  <rect x="136" y="212" width="20" height="20" rx="4" fill="#1A237E"/>
  <rect x="168" y="214" width="176" height="10" rx="4" fill="#212121"/>
  <rect x="168" y="228" width="120" height="7" rx="3" fill="#757575"/>
  <rect x="296" y="214" width="44" height="10" rx="4" fill="#FF6F00"/>
  <rect x="136" y="252" width="20" height="20" rx="4" fill="#E8EAF6" stroke="#1A237E" stroke-width="2"/>
  <rect x="168" y="254" width="176" height="10" rx="4" fill="#212121"/>
  <rect x="168" y="268" width="110" height="7" rx="3" fill="#757575"/>
  <rect x="296" y="254" width="44" height="10" rx="4" fill="#FF6F00"/>
  <rect x="136" y="292" width="20" height="20" rx="4" fill="#1A237E"/>
  <rect x="168" y="294" width="176" height="10" rx="4" fill="#212121"/>
  <rect x="168" y="308" width="130" height="7" rx="3" fill="#757575"/>
  <rect x="296" y="294" width="44" height="10" rx="4" fill="#FF6F00"/>
  <rect x="136" y="332" width="20" height="20" rx="4" fill="#E8EAF6" stroke="#1A237E" stroke-width="2"/>
  <rect x="168" y="334" width="176" height="10" rx="4" fill="#212121"/>
  <rect x="168" y="348" width="90" height="7" rx="3" fill="#757575"/>
  <rect x="296" y="334" width="44" height="10" rx="4" fill="#FF6F00"/>
</svg>
